{
    "asset" : {
        "generator" : "Khronos glTF Blender I/O v1.7.33",
        "version" : "2.0"
    },
    "extensionsUsed" : [
        "KHR_materials_clearcoat"
    ],
    "scene" : 0,
    "scenes" : [
        {
            "name" : "Scene",
            "nodes" : [
                0
            ]
        }
    ],
    "nodes" : [
        {
            "mesh" : 0,
            "name" : "Building_London_Building_0",
            "rotation" : [
                -0.7071068286895752,
                0,
                0,
                0.7071067094802856
            ],
            "scale" : [
                0.5086339116096497,
                0.5086339712142944,
                0.5086339712142944
            ],
            "translation" : [
                -0.1588420867919922,
                2.7431957721710205,
                1.020782470703125
            ]
        }
    ],
    "materials" : [
        {
            "doubleSided" : true,
            "emissiveFactor" : [
                1,
                1,
                1
            ],
            "emissiveTexture" : {
                "index" : 0,
                "texCoord" : 1
            },
            "extensions" : {
                "KHR_materials_clearcoat" : {
                    "clearcoatFactor" : 1,
                    "clearcoatRoughnessFactor" : 0,
                    "clearcoatTexture" : {
                        "index" : 1
                    },
                    "clearcoatNormalTexture" : {
                        "index" : 2
                    }
                }
            },
            "name" : "London_Building",
            "normalTexture" : {
                "index" : 3,
                "texCoord" : 2
            },
            "pbrMetallicRoughness" : {
                "baseColorTexture" : {
                    "index" : 4
                },
                "metallicFactor" : 0,
                "metallicRoughnessTexture" : {
                    "index" : 5
                }
            }
        }
    ],
    "meshes" : [
        {
            "name" : "Building_London_Building_0",
            "primitives" : [
                {
                    "attributes" : {
                        "POSITION" : 0,
                        "NORMAL" : 1,
                        "TEXCOORD_0" : 2,
                        "TEXCOORD_1" : 3,
                        "TEXCOORD_2" : 4,
                        "TEXCOORD_3" : 5
                    },
                    "indices" : 6,
                    "material" : 0
                }
            ]
        }
    ],
    "textures" : [
        {
            "sampler" : 0,
            "source" : 0
        },
        {
            "sampler" : 0,
            "source" : 1
        },
        {
            "sampler" : 0,
            "source" : 2
        },
        {
            "sampler" : 0,
            "source" : 3
        },
        {
            "sampler" : 0,
            "source" : 4
        },
        {
            "sampler" : 0,
            "source" : 5
        }
    ],
    "images" : [
        {
            "mimeType" : "image/png",
            "name" : "London_Building_emissive",
            "uri" : "London_Building_emissive.png"
        },
        {
            "mimeType" : "image/png",
            "name" : "London_Building_clearcoat",
            "uri" : "London_Building_clearcoat.png"
        },
        {
            "mimeType" : "image/png",
            "name" : "London_Building_clearcoat_normal",
            "uri" : "London_Building_clearcoat_normal.png"
        },
        {
            "mimeType" : "image/png",
            "name" : "London_Building_normal",
            "uri" : "London_Building_normal.png"
        },
        {
            "mimeType" : "image/png",
            "name" : "London_Building_baseColor",
            "uri" : "London_Building_baseColor.png"
        },
        {
            "mimeType" : "image/png",
            "name" : "London_Building_metallicRoughness",
            "uri" : "London_Building_metallicRoughness.png"
        }
    ],
    "accessors" : [
        {
            "bufferView" : 0,
            "componentType" : 5126,
            "count" : 106565,
            "max" : [
                21.685312271118164,
                16.908203125,
                28.12389373779297
            ],
            "min" : [
                -21.320405960083008,
                -14.902557373046875,
                -5.7198486328125
            ],
            "type" : "VEC3"
        },
        {
            "bufferView" : 1,
            "componentType" : 5126,
            "count" : 106565,
            "type" : "VEC3"
        },
        {
            "bufferView" : 2,
            "componentType" : 5126,
            "count" : 106565,
            "type" : "VEC2"
        },
        {
            "bufferView" : 3,
            "componentType" : 5126,
            "count" : 106565,
            "type" : "VEC2"
        },
        {
            "bufferView" : 4,
            "componentType" : 5126,
            "count" : 106565,
            "type" : "VEC2"
        },
        {
            "bufferView" : 5,
            "componentType" : 5126,
            "count" : 106565,
            "type" : "VEC2"
        },
        {
            "bufferView" : 6,
            "componentType" : 5125,
            "count" : 160116,
            "type" : "SCALAR"
        }
    ],
    "bufferViews" : [
        {
            "buffer" : 0,
            "byteLength" : 1278780,
            "byteOffset" : 0
        },
        {
            "buffer" : 0,
            "byteLength" : 1278780,
            "byteOffset" : 1278780
        },
        {
            "buffer" : 0,
            "byteLength" : 852520,
            "byteOffset" : 2557560
        },
        {
            "buffer" : 0,
            "byteLength" : 852520,
            "byteOffset" : 3410080
        },
        {
            "buffer" : 0,
            "byteLength" : 852520,
            "byteOffset" : 4262600
        },
        {
            "buffer" : 0,
            "byteLength" : 852520,
            "byteOffset" : 5115120
        },
        {
            "buffer" : 0,
            "byteLength" : 640464,
            "byteOffset" : 5967640
        }
    ],
    "samplers" : [
        {
            "magFilter" : 9729,
            "minFilter" : 9987
        }
    ],
    "buffers" : [
        {
            "byteLength" : 6608104,
            "uri" : "londonbuilding.bin"
        }
    ]
}
